<svg xmlns="http://www.w3.org/2000/svg" height="42" fill="dark-purple" viewBox="0 0 104 65"><path d="M103.776 43.126c-.26-3.605-1.953-7.905-11.763-5.125-5.079 1.433-9.724 1.52-11.764-.478a5.946 5.946 0 0 1-.65-.912c-.782-1.564-.435-3.866 1.475-7.123a4.95 4.95 0 0 1 4.775-2.867c1.563 0 3.386.304 5.556.26 6.815 0 9.42-4.342 9.159-8.338 0-1.216-1.65-.825-4.644-1.564-2.996-.738-5.34-.347-5.904-4.343a6.168 6.168 0 0 0-5.383-4.343c-2.387-.391-7.51-2.823-11.33.217l-3.298-1.433c-2.214-.522-2.04.999-4.341 1.737-2.3.738-5.513-1.086-4.34 1.346a6.73 6.73 0 0 0 8.03 3.388c-2.344 11.857-13.76 14.55-23.224 14.16a22.821 22.821 0 0 1-16.02-7.379 22.847 22.847 0 0 1-5.988-16.597c0-3.648-1.085-4.69-2.213-2.823-.44.809-.776 1.67-.999 2.563-.217.347-.217.782-.217 1.216a24.422 24.422 0 0 0 8.942 22.585 13.031 13.031 0 0 0-3.907 6.819 14.034 14.034 0 0 0 0 5.646l.217.782c.825 3.909-6.467 6.515-9.636 7.036h-.695c-.433.043-.869.043-1.302 0a6.3 6.3 0 0 1-1.389 0c-1.91 0-3.299 0-4.34 4.908C6.845 59.109 1.81 57.632.594 59.5c-1.866 3.04.955 5.299 4.341 5.472a8.678 8.678 0 0 0 6.468-2.171c6.207-5.603 3.212-8.079 9.376-7.688.825 0 1.736 0 2.865.304 6.815.912 11.677 2.302 18.405-4.951.363-.526.77-1.02 1.215-1.477a4.341 4.341 0 0 1 1.172-.695c.401-.085.815-.085 1.216 0a32.583 32.583 0 0 0 15.106 2.736 19.575 19.575 0 0 0 6.945-4.343s1.042-.912 1.737 0c.694.912 1.78 2.693 2.778 3.735 2.344 2.563 2.387 1.52 7.38-.52l1.866-.913c13.022-4.734 12.762-6.254 15.323-1.086.477.956 2.17 1.043 3.776.391a5.342 5.342 0 0 0 3.429-5.255"/></svg>